# xmcd
#
# Track frame offsets: 
#        150
#        16206
#        34812
#        45254
#        62162
#        72055
#        90724
#        111571
#        125714
#        146228
#        162086
#        179080
#
# Disc length: 2626 seconds
#
# Revision: 0
# Processed by: cddbd v1.5.2PL0 Copyright (c) Steve Scherf et al.
# Submitted via: ExactAudioCopy v0.99pb4
#
DISCID=ac0a400c
DTITLE=Katsen - It Hertz!
DYEAR=2009
DGENRE=Indie Pop
TTITLE0=Let's Build a City
TTITLE1=Chequered Flag
TTITLE2=Start As You Mean to Go On
TTITLE3=Island in an Island
TTITLE4=What You Want
TTITLE5=Drax
TTITLE6=German Film Star
TTITLE7=It Hertz!
TTITLE8=Constellation
TTITLE9=Where Nobody Can Find Us
TTITLE10=I'm a Doctor
TTITLE11=Florian
EXTD=
EXTT0=
EXTT1=
EXTT2=
EXTT3=
EXTT4=
EXTT5=
EXTT6=
EXTT7=
EXTT8=
EXTT9=
EXTT10=
EXTT11=
PLAYORDER=
